<svg id="Capa_1" enable-background="new 0 0 80 80" height="50" viewBox="0 0 511.881 511.881" width="50" xmlns="http://www.w3.org/2000/svg"><g><path d="m225.94 385.94h60c5.522 0 10-4.477 10-10v-103.438l75.171-75.171c3.905-3.905 3.905-10.237 0-14.143l-42.42-42.42c-3.905-3.903-10.237-3.904-14.143 0l-58.608 58.609-58.608-58.609c-3.904-3.903-10.236-3.905-14.143 0l-42.42 42.42c-3.905 3.905-3.905 10.237 0 14.143l75.171 75.171v103.438c0 5.523 4.478 10 10 10zm-63.957-195.68 28.277-28.278 58.608 58.609c3.905 3.903 10.237 3.904 14.143 0l58.608-58.609 28.277 28.278-71.028 71.029c-1.875 1.875-2.929 4.418-2.929 7.071v97.58h-40v-97.58c0-2.652-1.054-5.196-2.929-7.071z"/><circle cx="388.94" cy="389.94" r="10"/><path d="m17.869 299.071 194.94 194.94c11.523 11.523 26.841 17.869 43.131 17.869s31.607-6.346 43.131-17.869l65.165-65.166c3.905-3.905 3.905-10.237 0-14.142-3.906-3.905-10.236-3.905-14.143 0l-65.165 65.165c-7.745 7.746-18.04 12.012-28.988 12.012s-21.243-4.266-28.988-12.012l-194.94-194.94c-7.746-7.745-12.012-18.04-12.012-28.988s4.266-21.243 12.012-28.989l194.94-194.94c7.745-7.745 18.04-12.011 28.988-12.011s21.243 4.266 28.988 12.011l194.94 194.94c7.746 7.746 12.012 18.041 12.012 28.989s-4.266 21.243-12.012 28.989l-66.165 66.165c-3.905 3.905-3.905 10.237 0 14.143 3.906 3.904 10.236 3.904 14.143 0l66.165-66.166c11.523-11.523 17.869-26.841 17.869-43.131s-6.346-31.608-17.869-43.131l-194.94-194.94c-11.523-11.523-26.841-17.869-43.131-17.869s-31.607 6.346-43.131 17.869l-194.94 194.94c-11.523 11.523-17.869 26.841-17.869 43.131s6.346 31.608 17.869 43.131z"/></g></svg>